<?xml version="1.0" encoding="UTF-8" ?>
<svg xmlns="http://www.w3.org/2000/svg" viewBox="0 0 1198.06 944.72"><defs
  ><style>.d{fill:#27277a;}</style></defs><g id="a" /><g id="b"><g id="c"><path
        class="d"
        d="M1172.82,94.86l-7.62-11.15c-9.65-14.12-28.93-17.74-43.05-8.09l-33.07,22.61c-14.12,9.65-33.39,6.03-43.05-8.09l-1.31-1.92c-9.65-14.12-28.93-17.74-43.05-8.09l-35.54,24.3c-14.12,9.65-33.39,6.03-43.05-8.09l-3.42-5c-9.65-14.12-28.93-17.74-43.05-8.09l-62.79,42.92c-14.12,9.65-33.39,6.03-43.05-8.09l-3.42-5c-9.65-14.12-6.03-33.39,8.09-43.05l12.43-8.5c14.12-9.65,17.74-28.93,8.09-43.05l-3.42-5c-9.65-14.12-28.93-17.74-43.05-8.09l-105.71,72.27c-14.12,9.65-33.39,6.03-43.05-8.09l-3.42-5c-9.65-14.12-28.93-17.74-43.05-8.09L218.25,286.23c-14.12,9.65-17.74,28.93-8.09,43.05l3.42,5c9.65,14.12,6.03,33.39-8.09,43.05l-34.72,23.73c-14.12,9.65-17.74,28.93-8.09,43.05l3.42,5c9.65,14.12,6.03,33.39-8.09,43.05L13.5,590.95c-14.12,9.65-17.74,28.93-8.09,43.05l3.42,5c9.65,14.12,28.93,17.74,43.05,8.09l76.82-52.52c14.12-9.65,33.39-6.03,43.05,8.09l3.42,5c9.65,14.12,6.03,33.39-8.09,43.05l-19.86,13.58c-14.12,9.65-17.74,28.93-8.09,43.05l3.42,5c9.65,14.12,28.93,17.74,43.05,8.09l87.55-59.85c14.12-9.65,33.39-6.03,43.05,8.09l3.42,5c9.65,14.12,6.03,33.39-8.09,43.05l-155.24,106.13c-14.12,9.65-17.74,28.93-8.09,43.05l3.42,5c9.65,14.12,28.93,17.74,43.05,8.09l130.48-89.2c14.12-9.65,33.39-6.03,43.05,8.09l3.42,5c9.65,14.12,6.03,33.39-8.09,43.05l-54.53,37.28c-14.12,9.65-17.74,28.93-8.09,43.05l3.42,5c9.65,14.12,28.93,17.74,43.05,8.09l105.71-72.27c14.12-9.65,33.39-6.03,43.05,8.09l3.42,5c9.65,14.12,28.93,17.74,43.05,8.09l26.46-18.09c14.12-9.65,33.39-6.03,43.05,8.09l3.42,5c9.65,14.12,28.93,17.74,43.05,8.09l336.03-229.73c14.12-9.65,17.74-28.93,8.09-43.05l-3.42-5c-9.65-14.12-6.03-33.39,8.09-43.05l43.8-29.94c14.12-9.65,17.74-28.93,8.09-43.05l-3.42-5c-9.65-14.12-6.03-33.39,8.09-43.05l52.88-36.15c14.12-9.65,17.74-28.93,8.09-43.05l-2.1-3.08c-9.65-14.12-6.03-33.39,8.09-43.05l53.7-36.71c14.12-9.65,17.74-28.93,8.09-43.05l-6.05-8.84c-9.65-14.12-28.93-17.74-43.05-8.09l-165.98,113.47c-14.12,9.65-33.39,6.03-43.05-8.09h0c-9.65-14.12-6.03-33.39,8.09-43.05l222.11-151.85c14.12-9.65,17.74-28.93,8.09-43.05Z"
      /></g></g></svg>
