<?xml version="1.0" encoding="UTF-8" ?>
<svg id="a" xmlns="http://www.w3.org/2000/svg" viewBox="0 0 32 32"><defs><style
    >.b{stroke-width:1.85px;}.b,.c{fill:#fff;stroke:#1f1115;}.b,.c,.d,.e,.f,.g{stroke-miterlimit:10;}.c{stroke-width:1.88px;}.d,.e{stroke-width:2.77px;}.d,.e,.f,.g{fill:none;stroke-linecap:round;}.d,.f{stroke:#82caa3;}.e,.g{stroke:#6a6eb3;}.f,.g{stroke-width:2.82px;}</style></defs><g
  ><circle class="b" cx="16" cy="15.77" r="14.77" /><g><path
        class="d"
        d="M16,15.77c4.93,0,4.93,8.69,4.93,8.69"
      /><path class="d" d="M16,15.77c-4.93,0-4.93,8.69-4.93,8.69" /><path
        class="e"
        d="M11.07,7.08s0,8.69,4.93,8.69"
      /><path class="e" d="M20.93,7.08s0,8.69-4.93,8.69" /></g></g><g><circle
      class="c"
      cx="16.02"
      cy="16.02"
      r="15.02"
    /><g><path class="f" d="M16.02,16.02c5.01,0,5.01,8.83,5.01,8.83" /><path
        class="f"
        d="M16.02,16.02c-5.01,0-5.01,8.83-5.01,8.83"
      /><path class="g" d="M11.01,7.19s0,8.83,5.01,8.83" /><path
        class="g"
        d="M21.03,7.19s0,8.83-5.01,8.83"
      /></g></g></svg>
